<svg xmlns="http://www.w3.org/2000/svg" width="95" height="60" fill="none" viewBox="0 0 95 60"><g id="ic" fill="currentColor"><path d="M38.34 26.824s8.99-.666 8.99-11.18S39.974 0 30.658 0H0v58.756h30.658s18.715.588 18.715-17.343c0 0 .817-14.589-11.033-14.589M13.508 10.442h17.149s4.168 0 4.168 6.113-2.451 7-5.23 7H13.508zm16.36 37.871h-16.36V32.611h17.15s6.21-.081 6.21 8.069c0 6.795-4.542 7.565-7 7.633M74.334 14.95c-22.657 0-22.636 22.574-22.636 22.574s-1.555 22.46 22.637 22.46c0 0 20.16 1.148 20.16-15.625H84.126s.346 6.318-9.446 6.318c0 0-10.368.692-10.368-10.223H94.84s3.34-25.505-20.506-25.505m9.216 17.662H64.196s1.267-9.057 10.368-9.057 8.986 9.057 8.986 9.057M85.967 3.355H61.66v5.922h24.307z"/></g></svg>