<svg xmlns="http://www.w3.org/2000/svg" width="1856" height="144" fill="none" viewBox="0 0 1856 144"><defs><g id="serious" fill="currentColor"><path id="l1" d="M39.438 31.76c0-12.247 12.933-18.248 23.824-18.248 31.23 0 29.704 26.734 39.942 26.734 4.792 0 7.038-3.191 7.038-7.753s0-12.464-1.375-16.945c-.721-2.607-2.832-4.127-5.159-5.43C91.142 3.654 75.678.327 61.656.327c-49.09 0-56.578 34.12-56.578 43.163 0 55.409 81.49 30.494 81.49 63.677 0 14.99-16.2 21.806-29.269 21.806-17.725 0-28.398-8.255-32.904-15.071-8.358-12.383-9.883-13.55-15.029-13.55-5.513 0-9.366 5.064-9.366 10.359 0 8.119 12.198 33.102 59.123 33.251 43.359 0 61.084-27.739 61.084-48.091 0-54.69-80.769-30.21-80.769-64.112"/><path id="l2" d="M232.752 108.915c-4.942 0-9.366 5.648-12.416 8.988-8.209 8.907-12.129 9.422-23.524 9.422-25.933-.217-26.505-1.452-26.505-20.936h-.068V73.722h27.091c12.932 0 11.476 6.585 17.861 6.585 7.623 0 6.684-10.726 6.684-15.79 0-4.712 0-12.967-6.684-12.967s-4.425 6.952-17.861 6.952h-27.091V24.015c0-3.76 1.021-7.752 20.556-7.752 19.536 0 22.149 1.371 29.337 9.273 2.464 2.824 4.506 5.648 8.713 5.648 4.942 0 6.902-3.76 6.902-8.12 0-3.977-.722-14.92-3.199-17.894-1.525-1.887-4.792-2.24-10.455-2.24h-87.222c-4.207 0-9.366 1.303-9.366 6.367 0 3.408 1.089 5.065 5.663 6.45 4.424 1.086 4.424 3.76 4.424 11.079v90.031c0 6.585-.367 9.559-5.295 11.663-2.682 1.304-4.792 2.458-4.792 5.798 0 5.064 5.159 6.449 9.366 6.449h87.957c8.576 0 10.101-.72 12.565-8.622 1.742-4.711 4.207-12.097 4.207-17.161 0-3.408-3.417-6.083-6.821-6.083z"/><path id="l3" d="M378.275 129.829c-5.595-2.974-6.684-5.798-9.148-11.446-6.466-16.592-14.09-32.817-26.437-46 15.247-6.952 28.901-18.832 28.901-36.51 0-11.88-7.038-22.457-17.725-27.738-9.366-4.712-21.278-5.065-31.597-5.065h-67.618c-4.206 0-9.366 1.304-9.366 6.368 0 3.408 1.089 5.064 5.663 6.45 4.425 1.086 4.425 3.76 4.425 11.079v90.112c0 6.585-.368 9.559-5.296 11.663-2.682 1.304-4.792 2.458-4.792 5.798 0 5.064 5.16 6.449 9.366 6.449h36.171c4.207 0 9.366-1.371 9.366-6.449 0-3.408-2.028-4.562-6.098-6.585-3.989-2.105-3.989-5.064-3.989-10.943h.068V83.475c7.773-.936 14.457-1.805 18.814-2.973 7.405 8.255 23.388 34.256 23.388 43.896 0 5.281-8.209 4.711-8.209 10.359 0 6.368 6.82 6.151 11.408 6.151h37.26c3.635 0 9.883-.367 9.883-5.431.15-3.408-1.96-4.128-4.424-5.648zm-88.392-60.84v-36.36c0-10.36 1.089-16.158 16.922-16.158s27.594 6.802 27.594 23.177c0 22.022-26.587 28.974-44.516 29.34"/><path id="l4" d="M439.606 14.626c1.743-.72 3.853-1.887 3.853-5.282 0-4.996-5.16-6.367-9.366-6.367h-36.171c-4.207 0-9.366 1.303-9.366 6.367 0 3.408 1.089 5.065 5.663 6.45 4.438 1.086 4.438 3.76 4.438 11.079v90.113c0 6.585-.368 9.558-5.296 11.663-2.682 1.303-4.792 2.457-4.792 5.797 0 5.064 5.16 6.449 9.366 6.449h36.171c4.207 0 9.366-1.371 9.366-6.449 0-3.408-2.028-4.562-6.098-6.585-4.003-2.104-4.003-5.064-4.003-10.943V26.941c0-6.667.368-9.274 6.249-12.315z"/><path id="l5" d="M524.642.21c-41.467 0-75.024 29.627-75.024 71.418 0 47.086 38.499 72.068 74.452 72.15 41.467 0 76.699-29.992 76.699-72.15S566.476.21 524.642.21m.15 129.298c-29.923 0-38.132-35.057-38.132-58.45 0-31.079 13.941-56.496 38.282-56.496 30.29 0 38.635 33.903 38.635 57.799.068 24.263-8.277 57.079-38.785 57.147"/><path id="l6" d="M730.399 3.079h-16.486c-4.792 0-11.19.217-11.19 6.15 0 3.409 2.328 4.63 4.942 6.015 4.574 2.24 6.534 2.824 6.684 7.386.585 21.44 2.831 41.072 2.831 62.877 0 35.057-15.26 43.679-34.061 43.679-17.724 0-34.428-7.169-34.428-42.96 0-22.09 1.157-45.198 2.11-59.536.436-6.15.803-8.839 6.902-11.296 3.417-1.372 5.514-2.458 5.514-6.45 0-4.63-4.942-6.014-9.367-6.014h-38.131c-4.206 0-9.366 1.52-9.366 6.585 0 3.408 1.089 5.064 5.663 6.449 4.438 1.086 4.438 3.76 4.438 11.08 0 9.422-2.464 36.509-2.464 57.296 0 48.09 28.548 59.319 59.777 59.319 34.714 0 59.627-12.247 59.627-58.233 0-23.76-3.049-50.06-3.049-62.008 0-5.431 1.892-6.015 6.466-8.255 2.682-1.303 4.942-2.607 4.942-6.015-.068-5.865-6.535-6.083-11.327-6.083z"/><path id="l7" d="M782.74 31.77c0-12.247 12.933-18.248 23.824-18.248 31.229 0 29.636 26.733 39.941 26.733 4.792 0 7.039-3.19 7.039-7.752s0-12.464-1.375-16.945c-.722-2.607-2.832-4.127-5.16-5.43-12.565-6.45-28.03-9.776-42.052-9.776-49.104 0-56.578 34.12-56.578 43.176 0 55.409 81.491 30.494 81.491 63.677 0 14.99-16.2 21.806-29.269 21.806-17.725 0-28.398-8.255-32.822-14.99-8.359-12.382-9.87-13.55-15.043-13.55-5.514 0-9.366 5.064-9.366 10.36 0 8.119 12.197 33.169 59.041 33.169 43.359 0 61.084-27.739 61.084-48.091-.068-54.69-80.769-30.21-80.769-64.112z"/></g><g id="business" fill="currentColor"><path id="l8" d="M243.322 4.125h-21.046c-3.159 0-5.732 2.566-5.732 5.716v76.862c0 5.716-1.075 10.848-3.199 15.274-2.11 4.386-5.119 7.821-8.958 10.21-3.839 2.403-8.426 3.612-13.613 3.612-5.282-.122-9.924-1.521-13.763-4.155-3.853-2.647-6.862-6.178-8.904-10.509-2.069-4.358-3.103-9.205-3.103-14.433V9.856c0-3.15-2.573-5.716-5.732-5.716h-21.046c-3.158 0-5.731 2.566-5.731 5.716v77.798c0 11.038 2.491 20.909 7.392 29.354 4.901 8.459 11.857 15.098 20.651 19.742 8.781 4.63 18.95 6.978 30.25 6.978 11.299 0 21.468-2.348 30.249-6.978 8.794-4.63 15.75-11.283 20.651-19.742 4.901-8.445 7.393-18.33 7.393-29.354V9.855c0-3.15-2.573-5.716-5.732-5.716z"/><path id="l9" d="M349.621 63.705c-6.548-2.322-14.77-4.576-24.436-6.707-6.997-1.372-12.307-2.648-15.832-3.83-3.445-1.14-6.44-2.782-8.904-4.887-2.368-2.01-3.512-4.684-3.512-8.187 0-2.783.803-5.35 2.369-7.617 1.579-2.28 3.852-4.1 6.752-5.39 2.941-1.317 6.385-1.982 10.251-1.982 6.004 0 11.109 1.846 15.179 5.485 3.09 2.77 5.173 6.259 6.194 10.387.586 2.39 2.668 4.046 5.078 4.046.408 0 .817-.055 1.212-.15l17.384-4.182a5.16 5.16 0 0 0 3.254-2.39 5.14 5.14 0 0 0 .558-4.018 43.9 43.9 0 0 0-7.828-15.763c-4.547-5.798-10.496-10.387-17.711-13.646C332.427 1.63 324.273 0 315.37 0c-9.666 0-18.406 1.833-25.975 5.458-7.61 3.639-13.586 8.812-17.752 15.397s-6.276 14.188-6.276 22.62c0 9.477 2.396 17.148 7.107 22.81 4.683 5.62 10.373 9.68 16.921 12.043 6.426 2.322 14.594 4.575 24.259 6.707 7.107 1.371 12.538 2.688 16.2 3.924 3.581 1.208 6.63 2.919 9.094 5.078 2.015 1.765 3.145 4.019 3.444 6.884a13.67 13.67 0 0 1-3.28 10.386c-1.852 2.118-4.343 3.843-7.433 5.132-3.445 1.44-7.597 2.173-12.334 2.173-5.609 0-10.728-1.1-15.22-3.286-4.479-2.172-8.059-5.227-10.632-9.07a25.8 25.8 0 0 1-3.894-9.273c-.503-2.39-2.641-4.127-5.077-4.127-.327 0-.668.027-.994.095l-19.045 3.666c-2.805.543-4.67 3.217-4.153 5.974 1.334 7.128 4.248 13.686 8.645 19.469 5.228 6.871 12.238 12.261 20.842 16.008 8.577 3.734 18.256 5.635 28.765 5.635s20.475-1.901 28.861-5.635c8.427-3.747 15.057-9.083 19.726-15.845 4.683-6.775 7.052-14.745 7.052-23.678 0-9.464-2.464-17.149-7.311-22.824-4.805-5.621-10.618-9.667-17.289-12.043z"/><path id="l10" d="M415.382 4.125h-21.046c-3.166 0-5.732 2.56-5.732 5.716v124.206c0 3.157 2.566 5.716 5.732 5.716h21.046c3.165 0 5.732-2.559 5.732-5.716V9.841c0-3.157-2.567-5.716-5.732-5.716"/><path id="l11" d="M559.945 4.125h-19.154c-3.158 0-5.731 2.566-5.731 5.716v82.116c0 1.1-.885 1.697-1.729 1.697a1.63 1.63 0 0 1-1.443-.842L482.743 8.117a8.05 8.05 0 0 0-6.929-3.992h-27.581c-3.158 0-5.731 2.566-5.731 5.716v124.206c0 3.15 2.573 5.716 5.731 5.716h19.345c3.158 0 5.731-2.566 5.731-5.716V52.135c0-.625.286-1.019.518-1.236a1.86 1.86 0 0 1 1.198-.462c.353 0 1.007.109 1.443.856l48.954 84.492a8.05 8.05 0 0 0 6.929 3.991h27.581c3.158 0 5.731-2.566 5.731-5.716V9.855c0-3.15-2.573-5.716-5.731-5.716z"/><path id="l12" d="M682.362 113.188h-63.643c-.939 0-1.688-.76-1.688-1.683V83.766c0-.937.762-1.684 1.688-1.684h54.223c3.158 0 5.731-2.566 5.731-5.716V64.025c0-3.15-2.573-5.717-5.731-5.717h-54.223c-.939 0-1.688-.76-1.688-1.683V32.28c0-.937.762-1.684 1.688-1.684h60.444c3.158 0 5.731-2.566 5.731-5.716V9.865c0-3.15-2.573-5.717-5.731-5.717h-87.78c-3.158 0-5.731 2.567-5.731 5.717V134.07c0 3.15 2.573 5.716 5.731 5.716h90.993c3.158 0 5.731-2.566 5.731-5.716v-15.152c0-3.15-2.573-5.716-5.731-5.716z"/><path id="l13" d="M782.316 63.705c-6.548-2.322-14.771-4.576-24.437-6.707-6.997-1.372-12.306-2.648-15.832-3.83-3.444-1.14-6.439-2.782-8.903-4.887-2.369-2.01-3.513-4.684-3.513-8.187 0-2.783.803-5.35 2.369-7.617 1.579-2.28 3.853-4.1 6.752-5.39 2.941-1.317 6.385-1.982 10.251-1.982 6.004 0 11.109 1.846 15.166 5.485 3.09 2.77 5.173 6.259 6.194 10.387.585 2.39 2.668 4.046 5.078 4.046.408 0 .817-.055 1.211-.15l17.385-4.182a5.15 5.15 0 0 0 3.253-2.39 5.2 5.2 0 0 0 .558-4.018 43.85 43.85 0 0 0-7.827-15.763c-4.547-5.798-10.496-10.387-17.711-13.646C765.108 1.63 756.954 0 748.05 0c-9.665 0-18.405 1.833-25.974 5.458-7.61 3.639-13.586 8.812-17.752 15.397s-6.276 14.188-6.276 22.62c0 9.477 2.396 17.148 7.106 22.81 4.683 5.62 10.374 9.68 16.922 12.043 6.425 2.322 14.594 4.575 24.259 6.707 7.093 1.371 12.538 2.688 16.2 3.924 3.581 1.208 6.63 2.919 9.094 5.078 2.015 1.765 3.145 4.019 3.444 6.884a13.67 13.67 0 0 1-3.281 10.386c-1.851 2.118-4.342 3.843-7.433 5.132-3.444 1.44-7.596 2.173-12.333 2.173-5.609 0-10.728-1.1-15.22-3.286-4.479-2.172-8.059-5.227-10.632-9.07-1.879-2.783-3.186-5.906-3.894-9.273-.504-2.39-2.641-4.127-5.078-4.127a5 5 0 0 0-.994.095l-19.045 3.666c-2.804.543-4.669 3.217-4.152 5.974 1.334 7.128 4.248 13.686 8.645 19.469 5.227 6.871 12.238 12.261 20.842 16.008 8.576 3.734 18.256 5.635 28.765 5.635s20.475-1.901 28.874-5.635c8.413-3.747 15.057-9.083 19.726-15.845 4.683-6.775 7.052-14.745 7.052-23.678 0-9.464-2.464-17.149-7.31-22.824-4.806-5.621-10.619-9.667-17.289-12.043z"/><path id="l14" d="M918.69 75.748c-4.806-5.62-10.619-9.667-17.29-12.043-6.548-2.322-14.77-4.576-24.436-6.707-6.997-1.372-12.306-2.648-15.832-3.83-3.445-1.14-6.439-2.782-8.903-4.887-2.369-2.01-3.513-4.684-3.513-8.187 0-2.783.804-5.35 2.369-7.617 1.579-2.28 3.853-4.1 6.752-5.39 2.941-1.317 6.385-1.982 10.251-1.982 6.004 0 11.109 1.846 15.179 5.485 3.09 2.77 5.173 6.259 6.194 10.387.586 2.39 2.669 4.046 5.078 4.046.409 0 .817-.055 1.212-.15l17.384-4.182a5.16 5.16 0 0 0 3.254-2.39 5.14 5.14 0 0 0 .558-4.018 43.8 43.8 0 0 0-7.828-15.763c-4.547-5.798-10.496-10.387-17.711-13.646C884.207 1.63 876.052 0 867.149 0c-9.666 0-18.406 1.833-25.975 5.458-7.61 3.639-13.586 8.812-17.752 15.397s-6.275 14.188-6.275 22.62c0 9.477 2.395 17.148 7.106 22.81 4.683 5.62 10.373 9.68 16.921 12.043 6.426 2.322 14.594 4.575 24.26 6.707 7.106 1.371 12.538 2.688 16.2 3.924 3.566 1.208 6.629 2.919 9.094 5.078 2.014 1.765 3.144 4.019 3.444 6.884a13.67 13.67 0 0 1-3.281 10.386c-1.852 2.118-4.343 3.843-7.433 5.132-3.444 1.44-7.596 2.173-12.334 2.173-5.609 0-10.727-1.1-15.22-3.286-4.479-2.172-8.059-5.227-10.632-9.07a25.8 25.8 0 0 1-3.893-9.273c-.504-2.39-2.642-4.127-5.078-4.127a5 5 0 0 0-.994.095l-19.045 3.666c-2.805.543-4.67 3.217-4.152 5.974 1.334 7.128 4.247 13.686 8.644 19.469 5.228 6.871 12.239 12.261 20.842 16.008 8.577 3.734 18.256 5.635 28.766 5.635s20.474-1.901 28.86-5.635c8.427-3.747 15.057-9.083 19.726-15.845 4.683-6.775 7.052-14.745 7.052-23.678 0-9.464-2.464-17.149-7.31-22.824z"/><path id="l15" d="M101.081 71.533a1.62 1.62 0 0 1-.966-1.412 1.63 1.63 0 0 1 .776-1.52c4.492-2.743 14.934-10.85 14.934-26.993 0-2.96-.586-13.319-8.155-22.633C99.68 9.13 86.991 4.148 69.974 4.148H6.658C3.5 4.148.927 6.715.927 9.865V134.07c0 3.15 2.573 5.716 5.731 5.716h65.985c46.912 0 48.273-34.296 48.273-38.206 0-19.158-13.858-27.386-19.821-30.047zM35.124 81.879h31.284c5.677 0 11.217 1.534 15.206 4.222 3.172 2.132 6.956 6.056 6.956 12.64 0 .653-.245 16.131-22.162 16.131H35.124c-.94 0-1.688-.761-1.688-1.684V83.576c0-.937.762-1.684 1.688-1.684zM81.3 51.954c-1.593 2.35-3.798 4.196-6.576 5.486-2.804 1.317-6.18 1.968-10.046 1.968H35.11c-.94 0-1.688-.76-1.688-1.683V30.556c0-.936.763-1.683 1.688-1.683H64.68c3.852 0 7.27.665 10.142 1.982 2.831 1.303 5.037 3.11 6.561 5.39 1.512 2.268 2.288 4.956 2.288 8.011 0 2.797-.804 5.39-2.37 7.725z"/></g><g id="smile" fill="currentColor"><path id="smile-border" d="M94.223.78C42.628.78.655 42.753.655 94.348s41.973 93.568 93.568 93.568 93.568-41.973 93.568-93.568S145.818.78 94.223.78m0 171.058c-42.729 0-77.49-34.761-77.49-77.49 0-42.73 34.761-77.49 77.49-77.49s77.49 34.76 77.49 77.49-34.761 77.49-77.49 77.49"/><path id="smile-lip" d="M152.409 90.76a3.76 3.76 0 0 0-2.703-1.129h-7.87c-2.037 0-3.726 1.654-3.771 3.673-.533 23.627-20.204 42.844-43.84 42.844s-43.307-19.217-43.841-42.844c-.044-2.028-1.734-3.682-3.77-3.682h-7.87c-1.023 0-1.983.4-2.704 1.13a3.76 3.76 0 0 0-1.085 2.73c.312 15.562 6.616 30.154 17.768 41.092 11.16 10.956 25.904 16.985 41.502 16.985 15.597 0 30.341-6.038 41.501-16.985 11.143-10.938 17.456-25.53 17.768-41.093.018-1.031-.365-2-1.085-2.73z"/><path id="smile-left-eye" d="M70.648 82.28c7.843 0 14.202-6.359 14.202-14.202S78.49 53.876 70.648 53.876s-14.201 6.359-14.201 14.202 6.358 14.201 14.201 14.201"/><path id="smile-right-eye" d="M117.429 82.054c7.843 0 14.201-6.358 14.201-14.201s-6.358-14.202-14.201-14.202-14.202 6.358-14.202 14.202c0 7.843 6.358 14.201 14.202 14.201"/></g><path id="dot" fill="currentColor" d="M17.859 35.67c9.864 0 17.86-7.975 17.86-17.813C35.72 8.018 27.724.043 17.86.043S-.002 8.018-.002 17.857c0 9.838 7.997 17.813 17.86 17.813"/></defs><g id="logo"><use href="#serious"/><use x="876" y="108.04" href="#dot"/><use x="930.93" href="#business"/></g><g id="logo-smile"><use y="37.48" href="#serious"/><use x="904.65" href="#smile" transform="rotate(32.822 998.22 93.57)"/><use x="1133.65" y="37.2" href="#business"/></g></svg>