<?xml version="1.0" encoding="UTF-8"?>
<svg id="Layer_1" xmlns="http://www.w3.org/2000/svg" version="1.1" viewBox="0 0 328.5 152.2">
  <!-- Generator: Adobe Illustrator 29.0.1, SVG Export Plug-In . SVG Version: 2.1.0 Build 192)  -->
  <defs>
    <style>
      .st0 {
        fill: #5d0096;
      }

      .st1 {
        fill: #fa4242;
      }
    </style>
  </defs>
  <path class="st0" d="M48.8,121.6v-26.1c0-3.2-1.4-4.3-3.4-4.3s-4.2,1.1-6.4,2.7v27.7h-9.8v-26.1c0-3.2-1.4-4.3-3.4-4.3s-4.2,1-6.4,2.5v27.9h-9.8v-38.1h8.6l1.1,3.2c3.2-2.2,7-4.1,11.3-4.1s6.2,1.8,7.6,4.9c3.4-2.5,7.4-4.9,12.1-4.9s8.6,4.2,8.6,10.8v28.3h-10.1ZM82.8,122.5c-12.4,0-17.9-6.1-17.9-20s5.5-20,17.9-20,17.9,6.1,17.9,20-5.5,20-17.9,20ZM82.8,90.7c-6,0-7.8,2.1-7.8,11.8s1.8,11.8,7.8,11.8,7.8-2.1,7.8-11.8-1.8-11.8-7.8-11.8ZM129.9,121.6l-1.3-3.8c-3,2.1-7.3,4.8-11.6,4.8-8.5,0-10.1-5.2-10.1-9.5v-29.5h9.8v26.3c0,3,1.1,4.3,3.6,4.3s5.7-2,8.4-4.1v-26.5h9.8v38.1h-8.6ZM169.1,121.6v-26.3c0-3-1.1-4.3-3.6-4.3s-5.7,2-8.4,4.1v26.5h-9.8v-38.1h8.6l1.3,3.8c3-2.1,7.3-4.8,11.6-4.8,8.5,0,10.1,5.2,10.1,9.5v29.5h-9.8ZM184.7,137.6c-1.4,0-3.8-.2-5.5-.4v-8.4c2,.5,3.5.7,5,.7,3,0,3.4-1.4,3.4-5.4v-40.7h9.8v40.8c0,7.3-1.8,13.4-12.8,13.4h.1ZM192.6,78c-4,0-5.5-1.7-5.5-5.7s1.6-5.6,5.5-5.6,5.5,1.6,5.5,5.6-1.6,5.7-5.5,5.7ZM227.9,121.6l-1.2-3.6c-4.1,2.8-7.9,4.4-11.9,4.4-6,0-10.8-1.7-10.8-10.8s4.8-14.1,22.7-13.8v-2.1c0-2.7,0-5.2-5.4-5.2s-9.9,1.2-14.1,2.8v-8.5c4.2-1.3,10.7-2.3,14.3-2.3,9.1,0,14.7,2.9,14.7,11.9v27.2h-8.3ZM226.6,104.4c-9.9-.3-13.6,0-13.6,6.1s1.1,4.8,4.9,4.8,6.4-1.6,8.7-3.5v-7.4h0ZM263.8,91.8c-3.9,0-7.1,1.8-9.5,3.4v26.3h-9.8v-38.1h8.6l1.3,3.6c2.4-2.2,6.3-4.8,11.6-4.8s.9,0,1.3,0v9.7c-.8-.2-1.5-.2-3.5,0h0ZM288.8,122.5c-12.4,0-17.9-6.1-17.9-20s5.5-20,17.9-20,17.9,6.1,17.9,20-5.5,20-17.9,20ZM288.8,90.7c-6,0-7.8,2.1-7.8,11.8s1.8,11.8,7.8,11.8,7.8-2.1,7.8-11.8-1.8-11.8-7.8-11.8Z"/>
  <g>
    <path class="st0" d="M200.7,29.6l-8.1,12.9-13.3,21.3h-18c-2.7,0-4.8-1.5-5.9-3.5-1.1-2-1.2-4.6.2-6.9l24.3-38.9c1.3-2.1,3.5-3.2,5.7-3.2s4.4,1,5.7,3.2l9.4,15h0Z"/>
    <path class="st1" d="M229.6,53.4l-16.2-25.9c-1.3-2.1-3.5-3.2-5.8-3.2s-4.4,1.1-5.8,3.2l-.6,1-.6,1-8.1,12.9,13.3,21.3h18c2.7,0,4.8-1.5,5.9-3.5s1.2-4.6-.2-6.9h.1Z"/>
  </g>
  <path class="st0" d="M312.3,83.4c.7,0,1.4.2,2,.5s1.2.9,1.5,1.5.6,1.4.6,2.1-.2,1.4-.5,2.1c-.4.7-.9,1.2-1.5,1.5-.7.4-1.3.5-2.1.5s-1.4-.2-2.1-.5c-.7-.4-1.2-.9-1.5-1.5-.4-.7-.5-1.3-.5-2.1s.2-1.4.6-2.1.9-1.2,1.5-1.5,1.3-.5,2-.5ZM312.3,84.2c-.6,0-1.1,0-1.6.4s-.9.7-1.2,1.2c-.3.5-.5,1.1-.5,1.7s.1,1.1.4,1.7c.3.5.7.9,1.2,1.2.5.3,1.1.4,1.7.4s1.1,0,1.7-.4c.5-.3.9-.7,1.2-1.2.3-.5.4-1.1.4-1.7s-.2-1.1-.5-1.7c-.3-.5-.7-.9-1.2-1.2s-1.1-.4-1.6-.4ZM310.4,89.8v-4.4h2.3c.3,0,.5,0,.7.2s.3.2.4.4c.1.2.2.4.2.6s-.1.6-.3.8c-.2.2-.5.4-.9.4.1,0,.2,0,.3.2s.2.2.3.3c0,0,.1.2.3.5l.5.9h-1.1l-.4-.7c-.2-.5-.5-.8-.6-.9s-.4-.2-.6-.2h-.2v1.8h-.9ZM311.3,87.3h1.4c.1,0,.2,0,.3-.2,0,0,.1-.2.1-.3s0-.2-.1-.3-.2-.2-.3-.2h-1.4v1.2-.2Z"/>
</svg>