<svg xmlns="http://www.w3.org/2000/svg" width="70" height="70" fill="none" viewBox="0 0 70 70"><g id="ic" fill="currentColor"><path d="M53.979 19.39a1.31 1.31 0 0 0-1.055-.054l-2.67.997c-.69.258-1.061 1.052-.829 1.766 2.713 8.358-1.605 17.593-9.623 20.587-8.017 2.995-17.043-1.256-20.118-9.478-.263-.706-1.039-1.072-1.73-.814l-2.669.997a1.38 1.38 0 0 0-.778.738 1.45 1.45 0 0 0-.034 1.096c2.011 5.42 5.937 9.742 11.06 12.167 5.127 2.43 10.866 2.678 16.157.702 5.29-1.976 9.552-5.963 11.996-11.218a22.68 22.68 0 0 0 .994-16.67 1.39 1.39 0 0 0-.702-.82zM25.206 26.772c2.66-.994 4.038-4.03 3.078-6.783-.96-2.752-3.896-4.178-6.557-3.184-2.66.994-4.038 4.03-3.077 6.782.96 2.753 3.896 4.178 6.556 3.185M41.046 20.766c2.66-.994 4.038-4.03 3.078-6.783-.961-2.752-3.897-4.178-6.557-3.184s-4.038 4.03-3.078 6.782c.961 2.753 3.897 4.178 6.557 3.185"/></g></svg>